<?xml version="1.0" encoding="UTF-8" standalone="no"?>
<!-- Copyright 2017 mathsisfun.com -->
<svg xmlns="http://www.w3.org/2000/svg" width="233.8" height="211" version="1.1">
<defs>
<marker id="id02" style="overflow:visible;" orient="auto">
<path transform="matrix(-0.8,0,0,-0.8,-10,0)" style="stroke:black; stroke-width:1pt;" d="M 0,0 5,-5 -12.5,0 5,5 Z"/>
</marker>
<marker id="id01" style="overflow:visible;" orient="auto">
<path transform="matrix(0.8,0,0,0.8,10,0)" style="stroke:black; stroke-width:1pt;" d="M 0,0 5,-5 -12.5,0 5,5 Z"/>
</marker>
</defs>
<g transform="translate(247.979,-47.637)">
<path style="fill:none; stroke:#0000ff; stroke-width:2.02;" d="m -147.4,67.1 -90.4,140.1 175.2,18.2"/>
<path style="color:black; marker-start:url(#id01); marker-end:url(#id02); overflow:visible; fill:none; stroke:black; stroke-width:0.99;" d="m -164,98.5 a 130.8,130.8 0 0 1 43.9,49.4"/>
<path style="fill:none; stroke:#fd0000; stroke-width:1.68;" d="M -237.1,207.3 -22.6,102.4"/>
<path style="color:black; marker-start:url(#id01); marker-end:url(#id02); overflow:visible; fill:none; stroke:black; stroke-width:0.99;" d="m -118.1,152 a 130.8,130.8 0 0 1 11.8,66"/>
<text x="-128.3" y="121.3" style="font-family:'Comic Sans MS'; font-size:29.2px; font-style:italic; color:black; overflow:visible; fill:black; stroke-width:1px;">a</text>
<text x="-98.8" y="186.7" style="font-family:'Comic Sans MS'; font-size:29.2px; font-style:italic; color:black; overflow:visible; fill:black; stroke-width:1px;">a</text>
<text x="-218" y="243.7" style="font-family:'Comic Sans MS'; font-size:17px; color:black; overflow:visible; fill:#0000ff; stroke-width:1px;">Blue Angle is Bisected</text>
<text x="-136.8" y="78.7" transform="rotate(-25.5192)" style="font-family:'Comic Sans MS'; font-size:17.5px; color:black; overflow:visible; fill:#ff0000; stroke-width:1px;">bisector</text>
<rect x="-248" y="47.6" rx="54.4" ry="54.4" width="233.8" height="211" style="color:black; overflow:visible; fill:#00ff00; fill-opacity:0.08; stroke-width:6.9;"/>
</g>
</svg>
